# xmcd
#
# Track frame offsets:
#	180
#	21840
#	41127
#	60635
#	82197
#	101265
#	121505
#	142287
#	158682
#	178825
#	211430
#	226167
#	245635
#	261647
#	283795
#	302157
#
# Disc length: 4268 seconds
#
# Revision: 0
# Processed by: cddbd v1.5.2PL0 Copyright (c) Steve Scherf et al.
# Submitted via: EasyCDDAExtractor 12.0.0.1
#
DISCID=eb10aa10
DTITLE=Various Artist - Deep Dreams vol. 2
DYEAR=1900
DGENRE=Ballad
TTITLE0=R. Kelly - I Believe I Can Fly
TTITLE1=E-40 - Things'll Never Change
TTITLE2=Toni Braxton - I Don't Want To
TTITLE3=Tina Turner - Rock 'n' Roll Widow
TTITLE4=Luniz - Broke Hos
TTITLE5=Kevin Campbell - Tell Me Where
TTITLE6=Eternal - How Many Tears
TTITLE7=Inner Circle - I Think I Love You
TTITLE8=Real Mccoy - Look At Me
TTITLE9=Dr. Dre - Lovers
TTITLE10=Diana Ross - In The Ones You Love
TTITLE11=Lighthouse Family - Loving Every Minute
TTITLE12=Joe Cocker - Into The Mystic
TTITLE13=Bushwick Bill - Ex.Girl Friend
TTITLE14=Rod Stewart - For The First Time
TTITLE15=Down Low - Love Thing
EXTD=
EXTT0=
EXTT1=
EXTT2=
EXTT3=
EXTT4=
EXTT5=
EXTT6=
EXTT7=
EXTT8=
EXTT9=
EXTT10=
EXTT11=
EXTT12=
EXTT13=
EXTT14=
EXTT15=
PLAYORDER=
